<svg width="59" height="61" viewBox="0 0 59 61" fill="none" xmlns="http://www.w3.org/2000/svg">
<path d="M0.0785497 8.06569C0.0734797 9.12769 0.0734899 10.2427 0.0684199 11.4037C0.0431005 23.7997 -0.0126086 40.7217 0.00258147 41.7477C0.114002 48.2527 3.10194 53.3097 7.99904 57.2007C13.5596 61.6227 24.6048 62.1907 30.9807 53.3357C33.7508 48.4817 34.6573 43.3877 32.8342 37.9457C32.1303 35.8517 31.0921 34.1327 29.7754 32.7787C29.6792 32.6797 29.5779 32.5807 29.4715 32.4817C28.7777 31.8097 28.013 31.2367 27.1723 30.7527C25.7088 29.9147 24.0528 29.3517 22.2296 29.0597C17.7883 28.3517 13.8736 29.8517 11.0224 33.7897C10.6932 34.2427 10.3843 34.7107 10.1108 35.1957C8.27254 38.4347 7.91294 42.3467 9.81204 45.7527C11.5491 48.8677 14.8003 50.6647 18.2896 50.6327C19.6063 50.6227 20.923 50.3677 22.0827 49.7367C23.8502 48.7687 25.1314 46.9147 25.4404 44.8827C25.9215 41.7107 24.0274 38.3307 21.0193 37.4147C20.7205 37.3257 20.1533 37.1697 19.9659 37.1957C19.9355 37.2007 19.9102 37.2107 19.9001 37.2427L18.5479 41.1797C18.5378 41.2007 18.5479 41.2217 18.5681 41.2367C18.6644 41.3157 19.1657 41.5337 19.8443 42.0287C20.7255 42.6697 21.3029 43.9407 20.5533 44.9347C20.2343 45.3567 19.7633 45.6437 19.267 45.8207C17.4895 46.4607 15.3827 45.6697 14.2534 44.1177C13.119 42.5707 12.9367 40.4037 13.5798 38.5857C15.3523 33.5857 21.4852 32.3517 25.4809 35.3207C27.1723 36.5757 28.3574 38.4927 28.8993 40.5597C28.9853 40.8987 29.0613 41.2427 29.117 41.5857C30.1754 48.0857 25.729 53.9247 19.4949 54.8937C10.9819 56.2167 4.76304 48.6017 4.77814 41.7007C4.77814 41.7007 4.74784 24.2477 4.75284 16.1957C4.76304 10.8257 4.76804 5.45567 4.76804 0.0856741L0.0785493 0.0856743L0.0785497 8.06569ZM0.0785493 0.0806847L0.0785493 0.0856743L0.0785494 0.429684" fill="#F2DEBA"/>
<path d="M0.0681137 0.0807495L0.0681139 4.90375C5.28941 4.90375 10.5106 4.89874 15.7319 4.88774C23.5612 4.88274 40.5316 4.91475 40.5316 4.91475C47.2417 4.89874 54.6457 11.2947 53.3594 20.0497C52.4174 26.4607 46.7404 31.0337 40.4202 29.9457C40.0859 29.8877 39.7517 29.8097 39.4225 29.7217C37.412 29.1647 35.5484 27.9457 34.3279 26.2057C31.4412 22.0967 32.6415 15.7897 37.5032 13.9667C39.2706 13.3047 41.3773 13.4927 42.8814 14.6587C44.3906 15.8207 45.1603 17.9867 44.5374 19.8157C44.3652 20.3257 44.0867 20.8097 43.6765 21.1377C42.7092 21.9087 41.4735 21.3157 40.8506 20.4087C40.3695 19.7107 40.1568 19.1957 40.0809 19.0967C40.0657 19.0757 40.0454 19.0657 40.0252 19.0757L36.1966 20.4667C36.1662 20.4767 36.1561 20.5027 36.151 20.5337C36.1257 20.7267 36.2776 21.3097 36.3637 21.6177C37.255 24.7107 40.5417 26.6587 43.6259 26.1647C45.6009 25.8467 47.4038 24.5287 48.3458 22.7107C48.9585 21.5187 49.2067 20.1647 49.2168 18.8097C49.2472 15.2217 47.5 11.8777 44.4716 10.0917C41.1596 8.13773 37.3563 8.50774 34.2063 10.3987C33.7353 10.6797 33.2796 10.9977 32.839 11.3357C29.0104 14.2687 27.5519 18.2947 28.2406 22.8617C28.5242 24.7367 29.0712 26.4407 29.8865 27.9457C30.3575 28.8097 30.9146 29.5967 31.5678 30.3097C31.6641 30.4197 31.7603 30.5237 31.8565 30.6227C33.1732 31.9767 34.8444 33.0447 36.8803 33.7687C42.1724 35.6437 47.1253 34.7107 51.8452 31.8617C60.4544 25.3047 59.9024 13.9457 55.6028 8.22674C51.8198 3.19074 46.9024 0.117746 40.5772 0.00274481C39.5795 -0.013254 23.1257 0.0447378 11.0727 0.0707393C9.94341 0.0757404 8.85971 0.0757481 7.82661 0.0807492L0.0681137 0.0807495ZM0.402354 0.0807495L0.0782341 0.0807495L0.0681137 0.0807495" fill="#F2DEBA"/>
</svg>
