<svg width="372" height="372" viewBox="0 0 372 372" fill="none" xmlns="http://www.w3.org/2000/svg">
<path d="M209.14 72H160.86C130.367 72 115.12 72 108.619 82.2645C102.119 92.529 108.307 106.831 120.685 135.435L150.851 205.149C165.521 239.05 172.855 256 185 256C190.269 256 194.632 252.81 199.082 246.43C201.496 242.968 201.502 238.377 199.58 234.604L189.217 214.257C186.961 209.83 185.834 207.616 186.796 205.985C187.758 204.354 190.192 204.354 195.06 204.354H211.635C216.413 204.354 220.743 201.465 222.683 196.982L233.788 171.318C236.493 165.067 233.759 157.748 227.676 154.955L186.787 136.182C181.376 133.697 183.103 125.393 189.031 125.393H245.731C250.535 125.393 254.906 122.478 256.759 117.929C263.86 100.5 266.394 90.1812 261.381 82.2645C254.88 72 239.633 72 209.14 72Z" fill="#F2DEBA"/>
<path d="M186.075 63.9808C174.95 64.0307 165.637 61.5 157.372 55.2065C150.264 49.7941 146.012 42.4149 143.66 33.7213C142.532 29.5505 141.799 25.3028 142.049 20.917C142.125 19.5817 142.538 18.8738 143.896 18.9084C152.513 19.1222 160.673 20.9438 167.749 26.4512C168.534 27.063 168.716 26.6816 168.901 26.0735C169.245 24.9521 169.497 23.7999 169.823 22.6721C171.621 16.4709 175.097 11.3016 178.964 6.37032C180.624 4.25418 182.441 2.29552 184.33 0.403418C184.864 -0.131696 185.207 -0.138099 185.734 0.405976C192.215 7.11538 197.978 14.3177 200.516 23.7603C200.599 24.0688 200.652 24.385 200.714 24.6986C201.155 27.0004 201.39 27.0657 203.159 25.7151C206.885 22.8705 211.161 21.342 215.592 20.259C219.065 19.4089 222.558 18.6754 226.171 18.8904C227.4 18.9634 227.993 19.4409 227.999 20.7531C228.065 33.0096 224.479 43.8297 215.923 52.371C210.203 58.0817 203.239 61.5446 195.381 62.9799C191.947 63.6097 188.524 64.1051 186.075 63.9808Z" fill="#F2DEBA"/>
<path d="M34.983 346.121C31.9142 346.121 29.3853 345.438 27.3963 344.071C25.4641 342.648 23.9013 340.399 22.7079 337.324C21.5713 334.192 20.5767 329.808 19.7243 324.171L19.4686 322.548L29.6126 320.925L31.0618 329.381C31.2891 330.69 31.5732 331.687 31.9142 332.37C32.2552 332.996 32.653 333.423 33.1076 333.651C33.6191 333.879 34.2442 333.993 34.983 333.993H35.4945L36.1764 340.057L35.4945 346.121H34.983ZM6 356.199L11.2851 354.747C11.6829 354.69 12.0523 354.605 12.3933 354.491C15.1211 353.694 17.1954 352.897 18.6161 352.1C20.0369 351.359 21.0314 350.363 21.5997 349.11C22.168 347.915 22.31 346.292 22.0259 344.242L18.6161 319.73L29.2716 318.021L31.7437 335.957L32.0847 338.263L32.6814 342.79C33.3065 347.174 33.0508 350.847 31.9142 353.808C30.7776 356.826 28.9023 359.274 26.2881 361.153C23.6739 363.089 20.1221 364.712 15.6326 366.021L14.0982 366.448L8.81306 367.986L6 356.199Z" fill="#F2DEBA"/>
<path d="M34.9597 333.993H49.9627C52.2358 333.993 53.7702 333.68 54.5658 333.053C55.3615 332.427 55.674 331.431 55.5035 330.064L54.5658 319.559L65.3919 318.534L66.3295 329.039C66.6137 332.342 66.1022 335.302 64.7951 337.922C63.5449 340.541 61.6411 342.562 59.0838 343.986C56.5265 345.409 53.4861 346.121 49.9627 346.121H34.9597V333.993ZM71.7852 346.121C66.8978 346.121 63.0618 344.754 60.2772 342.021C57.4926 339.288 55.9013 335.274 55.5035 329.979L66.3295 329.125C66.4432 330.491 66.6421 331.516 66.9262 332.199C67.2672 332.883 67.7787 333.367 68.4606 333.651C69.1994 333.879 70.3076 333.993 71.7852 333.993L72.4671 340.057L71.7852 346.121ZM59.7657 309.651H48.5988V299.744H59.7657V309.651ZM49.6217 299.744V309.651H38.3695V299.744H49.6217Z" fill="#F2DEBA"/>
<path d="M70.9221 333.993H85.925C88.1982 333.993 89.7326 333.68 90.5282 333.053C91.3238 332.427 91.6364 331.431 91.4659 330.064L90.5282 319.559L101.354 318.534L102.292 329.039C102.576 332.342 102.065 335.302 100.758 337.922C99.5073 340.541 97.6035 342.562 95.0462 343.986C92.4888 345.409 89.4484 346.121 85.925 346.121H70.9221V333.993ZM107.748 346.121C102.86 346.121 99.0242 344.754 96.2396 342.021C93.4549 339.288 91.8637 335.274 91.4659 329.979L102.292 329.125C102.406 330.491 102.604 331.516 102.889 332.199C103.23 332.883 103.741 333.367 104.423 333.651C105.162 333.879 106.27 333.993 107.748 333.993L108.429 340.057L107.748 346.121ZM73.3089 363.117H82.9415V372H73.3089V363.117ZM66.4894 353.125H78.6793V363.886H66.5746L66.4894 353.125ZM77.4006 353.125H89.5905L89.5053 363.886H77.4859L77.4006 353.125Z" fill="#F2DEBA"/>
<path d="M106.884 333.993H110.038C114.698 333.993 118.819 333.879 122.399 333.651C125.979 333.367 129.389 332.769 132.628 331.858L152.661 327.075L152.32 329.893L134.845 321.011C133.481 320.327 132.088 319.986 130.668 319.986C129.247 319.986 127.883 320.356 126.576 321.096C125.326 321.836 124.331 322.861 123.592 324.171L122.143 326.904L112.766 320.925L114.386 317.936C116.261 314.633 118.591 312.128 121.376 310.42C124.217 308.655 127.258 307.772 130.497 307.772C133.736 307.715 136.947 308.598 140.13 310.42L161.611 322.89L160.162 336.897L135.356 343.559C131.435 344.641 127.4 345.352 123.251 345.694C119.16 345.979 114.755 346.121 110.038 346.121H106.884V333.993ZM130.327 363.117H139.959V372H130.327V363.117ZM123.507 353.125H135.697V363.886H123.592L123.507 353.125ZM134.418 353.125H146.608L146.523 363.886H134.504L134.418 353.125Z" fill="#F2DEBA"/>
<path d="M206.75 333.993H227.294C229.51 333.993 231.016 333.68 231.812 333.053C232.607 332.427 232.948 331.431 232.835 330.064L231.897 319.559L242.638 318.534L243.575 329.039C243.916 332.342 243.433 335.302 242.126 337.922C240.876 340.541 238.944 342.562 236.33 343.986C233.772 345.409 230.76 346.121 227.294 346.121H206.75V333.993ZM249.116 346.121C244.229 346.121 240.393 344.754 237.608 342.021C234.824 339.288 233.232 335.302 232.835 330.064L243.575 329.039C243.746 330.406 243.973 331.431 244.257 332.114C244.598 332.797 245.11 333.281 245.792 333.566C246.531 333.851 247.639 333.993 249.116 333.993H250.054L250.736 340.057L250.054 346.121H249.116ZM207.176 346.121C200.698 346.121 195.81 346.064 192.514 345.95C189.275 345.836 186.718 345.609 184.842 345.267C182.967 344.925 181.177 344.413 179.472 343.73L179.387 343.644C175.465 341.936 172.766 339.231 171.288 335.53C169.811 331.829 169.697 327.644 170.947 322.975L174.187 310.505L184.586 313.665L181.262 326.562C180.807 328.27 180.75 329.552 181.091 330.406C181.432 331.26 182.285 331.972 183.649 332.541L183.819 332.626C184.615 332.968 185.666 333.253 186.973 333.48C188.28 333.651 190.468 333.794 193.537 333.907C196.663 333.964 201.209 333.993 207.176 333.993L207.688 340.057L207.176 346.121ZM218.173 314.349H207.006V304.441H218.173V314.349ZM208.029 304.441V314.349H196.776V304.441H208.029Z" fill="#F2DEBA"/>
<path d="M249.152 333.993H255.886C257.876 333.993 259.438 333.765 260.575 333.31C261.768 332.854 262.507 332.057 262.791 330.918C263.132 329.779 263.047 328.214 262.536 326.221L259.126 313.495L269.526 310.42L272.935 323.146C274.129 327.644 274.157 331.63 273.021 335.103C271.884 338.577 269.81 341.281 266.798 343.217C263.786 345.153 260.149 346.121 255.886 346.121H249.152V333.993ZM254.864 292.228H266.031V303.416H254.864V292.228Z" fill="#F2DEBA"/>
<path d="M284.357 287.445L295.183 286.932L297.399 345.95L286.658 346.463L284.357 287.445Z" fill="#F2DEBA"/>
<path d="M328.093 346.121C325.024 346.121 322.495 345.438 320.506 344.071C318.574 342.648 317.011 340.399 315.818 337.324C314.681 334.192 313.687 329.808 312.834 324.171L312.578 322.548L322.723 320.925L324.172 329.381C324.399 330.69 324.683 331.687 325.024 332.37C325.365 332.996 325.763 333.423 326.218 333.651C326.729 333.879 327.354 333.993 328.093 333.993H328.604L329.286 340.057L328.604 346.121H328.093ZM299.11 356.199L304.395 354.747C304.793 354.69 305.162 354.605 305.503 354.491C308.231 353.694 310.305 352.897 311.726 352.1C313.147 351.359 314.141 350.363 314.71 349.11C315.278 347.915 315.42 346.292 315.136 344.242L311.726 319.73L322.382 318.021L324.854 335.957L325.195 338.263L325.791 342.79C326.416 347.174 326.161 350.847 325.024 353.808C323.888 356.826 322.012 359.274 319.398 361.153C316.784 363.089 313.232 364.712 308.743 366.021L307.208 366.448L301.923 367.986L299.11 356.199Z" fill="#F2DEBA"/>
<path d="M328.07 333.993H344.351C348.159 333.993 350.801 333.879 352.279 333.651C353.757 333.423 354.694 332.996 355.092 332.37C355.547 331.687 355.689 330.52 355.518 328.868L354.41 314.861C354.126 312.014 353.359 309.851 352.108 308.37C350.858 306.89 349.239 306.206 347.25 306.32C345.942 306.32 344.834 306.69 343.925 307.431C343.073 308.171 342.419 309.11 341.964 310.249C341.51 311.388 341.339 312.641 341.453 314.007C341.567 315.374 342.078 316.456 342.987 317.253C343.953 318.05 345.289 318.448 346.994 318.448C349.438 318.448 351.625 318.363 353.558 318.192C355.49 318.021 357.024 317.822 358.161 317.594L359.951 328.868C359.269 329.039 357.791 329.21 355.518 329.381C353.302 329.552 350.46 329.637 346.994 329.637C342.391 329.637 338.697 328.327 335.912 325.708C333.127 323.089 331.707 319.473 331.65 314.861C331.593 311.445 332.105 308.313 333.184 305.466C334.321 302.562 336.026 300.228 338.299 298.463C340.572 296.698 343.385 295.673 346.738 295.388C349.977 295.16 352.904 295.815 355.518 297.352C358.189 298.833 360.349 301.025 361.997 303.929C363.645 306.776 364.583 310.107 364.81 313.922L365.918 328.783C366.202 332.826 365.748 336.1 364.554 338.605C363.361 341.11 361.116 342.989 357.82 344.242C354.581 345.495 350.034 346.121 344.181 346.121H328.07V333.993ZM342.05 276H353.217V287.189H342.05V276Z" fill="#F2DEBA"/>
</svg>
