<?xml version="1.0" standalone="no"?>
<!DOCTYPE svg PUBLIC "-//W3C//DTD SVG 20010904//EN"
 "http://www.w3.org/TR/2001/REC-SVG-20010904/DTD/svg10.dtd">
<svg version="1.0" xmlns="http://www.w3.org/2000/svg"
 width="583.000000pt" height="583.000000pt" viewBox="0 0 583.000000 583.000000"
 preserveAspectRatio="xMidYMid meet">
<metadata>
Created by potrace 1.14, written by Peter Selinger 2001-2017
</metadata>
<g transform="translate(0.000000,583.000000) scale(0.100000,-0.100000)"
fill="#000000" stroke="none">
<path d="M2675 5821 c-3 -2 -27 -5 -53 -6 -56 -3 -195 -14 -237 -20 -16 -3
-50 -7 -75 -10 -25 -3 -61 -7 -80 -10 -19 -3 -48 -8 -65 -10 -16 -2 -41 -6
-55 -10 -14 -3 -38 -7 -55 -10 -24 -4 -62 -12 -95 -20 -79 -19 -127 -29 -135
-30 -5 0 -16 -4 -22 -8 -7 -5 -13 -6 -13 -3 0 3 -12 1 -27 -5 -16 -6 -39 -13
-53 -15 -14 -3 -56 -14 -95 -26 -38 -11 -74 -21 -80 -23 -5 -1 -17 -5 -25 -8
-8 -3 -40 -13 -70 -22 -30 -9 -62 -19 -70 -22 -8 -4 -17 -7 -20 -8 -3 -1 -12
-4 -20 -7 -70 -26 -117 -42 -125 -44 -13 -3 -112 -41 -152 -59 -17 -8 -38 -15
-47 -15 -9 0 -16 -5 -16 -10 0 -6 -6 -10 -12 -9 -14 3 -66 -18 -148 -59 l-55
-27 0 -1680 c0 -924 3 -1702 7 -1730 4 -27 10 -66 13 -85 7 -53 12 -71 29
-120 9 -25 19 -54 21 -65 14 -64 173 -325 198 -325 6 0 8 -3 5 -6 -11 -10 201
-214 223 -214 5 0 7 -4 4 -10 -3 -5 0 -10 7 -10 11 0 25 -10 84 -59 6 -5 20
-12 32 -15 12 -4 22 -11 22 -16 0 -5 15 -17 32 -26 18 -9 35 -20 38 -23 3 -3
19 -13 35 -22 43 -23 79 -43 85 -49 6 -6 37 -23 99 -56 24 -13 50 -29 57 -35
8 -6 14 -8 14 -5 0 4 12 -1 28 -12 15 -10 83 -47 152 -82 139 -70 189 -97 208
-112 6 -6 12 -7 12 -4 0 4 12 -1 28 -12 15 -10 34 -22 42 -25 8 -4 33 -19 55
-32 22 -14 48 -28 58 -32 9 -3 17 -9 17 -14 0 -5 7 -9 15 -9 8 0 15 -4 15 -10
0 -5 5 -10 11 -10 6 0 30 -13 54 -30 24 -16 46 -30 49 -30 3 0 14 -6 23 -14
10 -8 45 -36 78 -63 103 -81 244 -218 245 -236 0 -4 8 -17 18 -27 18 -20 19
-19 73 41 90 103 196 203 262 248 12 8 24 18 27 21 3 4 20 15 38 25 17 11 32
23 32 27 0 4 7 8 15 8 8 0 15 4 15 10 0 5 3 9 8 8 4 -1 26 10 49 25 24 15 45
27 49 27 3 0 18 8 32 19 28 19 96 57 192 107 30 16 57 31 60 34 8 8 99 50 106
49 4 0 10 3 13 8 8 11 84 48 94 45 4 -1 7 2 7 7 0 5 24 21 53 36 28 14 70 36
92 48 22 13 65 37 95 54 119 66 205 120 237 150 7 6 29 22 50 34 42 26 74 51
115 91 15 14 28 25 28 23 0 -7 106 102 145 149 22 27 48 58 58 69 9 11 17 24
17 28 0 4 6 14 13 21 39 42 114 213 145 328 10 37 29 176 26 182 -2 4 0 9 5
12 5 3 9 700 10 1679 l1 1673 -23 20 c-20 17 -49 34 -67 38 -3 1 -14 7 -25 13
-11 6 -51 23 -90 38 -38 14 -81 31 -95 37 -14 6 -34 14 -45 18 -11 4 -31 12
-45 18 -63 26 -110 41 -110 36 0 -4 -6 -2 -12 3 -7 6 -35 17 -63 26 -182 60
-271 87 -286 87 -10 0 -21 5 -24 10 -4 6 -11 8 -16 5 -5 -4 -15 -3 -21 1 -7 5
-19 9 -28 10 -19 3 -100 24 -120 31 -8 3 -22 7 -30 8 -8 1 -28 5 -45 9 -16 3
-40 8 -53 10 -13 3 -31 7 -40 10 -9 3 -35 8 -57 11 -22 4 -49 9 -60 11 -46 8
-93 14 -140 19 -53 6 -90 12 -90 15 0 1 -18 3 -40 5 -22 1 -71 6 -110 10 -38
4 -94 8 -122 9 -29 0 -53 3 -53 6 0 7 -459 8 -465 1z m635 -615 c81 -9 132
-16 160 -20 14 -3 50 -7 80 -11 85 -11 158 -22 194 -30 12 -3 32 -7 46 -9 37
-6 197 -44 260 -62 30 -9 87 -25 125 -35 39 -11 77 -23 85 -26 8 -3 24 -8 35
-10 11 -1 29 -7 40 -12 11 -5 38 -15 60 -21 67 -21 337 -121 395 -148 30 -13
61 -25 68 -25 6 0 12 -5 12 -10 0 -6 3 -7 7 -4 28 28 29 -50 27 -1438 -1 -775
-4 -1430 -8 -1455 -7 -50 -14 -85 -16 -85 -1 0 -3 -7 -5 -16 -19 -98 -67 -209
-136 -311 -63 -93 -239 -264 -354 -343 -55 -38 -103 -73 -106 -78 -3 -5 -8 -8
-10 -7 -9 4 -59 -24 -59 -32 0 -5 -4 -6 -10 -3 -5 3 -10 2 -10 -2 0 -5 -35
-27 -77 -48 -43 -22 -79 -43 -81 -47 -2 -4 -10 -8 -18 -8 -8 0 -14 -4 -14 -10
0 -5 -4 -9 -8 -7 -8 2 -141 -62 -152 -73 -3 -3 -41 -24 -85 -47 -251 -130
-318 -166 -325 -174 -3 -3 -12 -8 -22 -12 -65 -23 -336 -223 -418 -308 -30
-31 -63 -59 -72 -62 -12 -4 -37 12 -80 53 -93 86 -118 108 -168 143 -25 17
-54 39 -64 49 -11 10 -25 18 -31 18 -7 0 -20 9 -30 20 -10 11 -21 17 -25 15
-4 -3 -10 2 -14 10 -3 8 -10 15 -15 15 -6 0 -30 14 -54 30 -25 17 -50 30 -56
30 -6 0 -11 3 -11 8 0 4 -10 12 -23 18 -26 12 -190 99 -297 156 -41 23 -127
67 -190 100 -114 59 -158 83 -205 114 -14 9 -25 13 -25 10 0 -4 -6 -2 -12 4
-7 6 -49 34 -93 63 -87 57 -176 120 -214 152 -57 47 -201 198 -201 211 0 8 -5
14 -10 14 -6 0 -15 10 -20 23 -5 12 -23 42 -39 67 -17 25 -31 51 -31 58 0 6
-4 12 -10 12 -5 0 -9 3 -8 8 0 4 -2 15 -5 25 -4 9 -10 25 -14 35 -3 9 -7 19
-8 22 0 3 -6 21 -13 40 -6 19 -14 49 -17 65 -3 17 -8 44 -11 60 -3 17 -9 59
-12 95 -8 70 -7 2762 0 2794 3 11 11 23 19 27 30 16 128 59 134 59 4 0 21 6
38 14 26 12 93 35 117 41 6 2 56 21 85 34 28 12 90 31 114 36 11 2 29 9 40 15
12 6 21 8 21 5 0 -3 9 -1 21 6 18 9 160 53 209 64 8 2 30 8 48 14 17 5 32 8
32 5 0 -3 9 0 21 6 11 7 33 14 47 16 15 3 43 9 62 14 19 5 49 12 65 14 17 3
41 8 55 11 14 3 41 8 60 11 19 3 54 10 77 15 22 5 65 11 95 15 29 3 64 8 78
10 37 7 74 11 180 19 52 4 97 9 99 11 6 6 618 -3 681 -10z"/>
<path d="M2777 5105 c-1 -1 -64 -5 -141 -9 -76 -4 -141 -8 -145 -10 -3 -2 -39
-7 -80 -10 -41 -4 -77 -9 -80 -10 -3 -2 -32 -7 -64 -10 -32 -4 -64 -9 -70 -11
-7 -2 -30 -7 -52 -10 -22 -4 -51 -8 -65 -10 -22 -4 -240 -56 -295 -71 -11 -3
-31 -7 -45 -10 -14 -2 -32 -7 -40 -11 -18 -7 -19 -7 -100 -29 -36 -9 -67 -20
-70 -23 -3 -3 -14 -8 -25 -9 -19 -4 -173 -55 -205 -69 -8 -3 -22 -7 -30 -9 -8
-2 -23 -7 -35 -13 -11 -6 -56 -24 -100 -42 -85 -33 -108 -46 -100 -59 3 -5 2
-11 -2 -13 -9 -6 -7 -2716 2 -2762 3 -16 7 -41 9 -55 5 -33 25 -109 35 -129 5
-9 19 -40 32 -68 13 -29 27 -53 32 -53 4 0 7 -7 7 -15 0 -8 5 -15 10 -15 6 0
10 -6 10 -12 1 -22 118 -151 208 -231 39 -34 221 -155 282 -188 25 -13 47 -27
50 -30 5 -6 131 -74 272 -147 42 -22 79 -37 82 -34 3 3 6 0 6 -6 0 -7 4 -12 8
-12 5 0 59 -27 120 -60 60 -33 115 -60 122 -60 8 0 10 99 7 377 -3 208 -7 389
-10 403 -3 14 -8 50 -12 80 -6 51 -11 87 -19 135 -2 11 -8 31 -13 45 -6 14 -8
30 -6 37 2 6 -1 14 -6 18 -6 3 -11 13 -11 21 0 8 -7 31 -16 52 -10 20 -18 42
-19 48 -4 18 -51 88 -69 103 -9 7 -16 19 -16 27 0 7 -9 16 -20 19 -11 3 -20
11 -20 16 0 6 -4 7 -10 4 -5 -3 -10 0 -10 7 0 7 -17 24 -37 37 -33 21 -35 25
-18 31 11 3 416 6 900 5 743 -1 880 -3 877 -15 -2 -7 -9 -18 -17 -24 -83 -64
-119 -101 -153 -156 -35 -59 -87 -189 -98 -244 -2 -12 -8 -43 -14 -71 -12 -59
-18 -100 -26 -175 -3 -30 -8 -71 -10 -90 -7 -58 -15 -691 -8 -701 4 -7 10 -7
17 0 7 5 14 9 17 9 14 0 60 27 60 35 0 6 3 7 7 4 3 -4 11 -3 17 2 6 5 92 50
191 101 99 51 210 110 247 131 36 22 70 39 74 39 4 0 21 10 38 23 17 12 42 28
56 35 31 15 143 85 165 103 9 8 25 22 36 31 10 10 19 15 19 12 0 -6 45 35 114
102 44 44 86 94 86 104 0 5 4 10 9 10 11 0 19 13 76 126 55 107 78 183 90 301
5 41 10 2455 6 2676 -1 43 -6 61 -20 74 -54 46 -591 229 -821 279 -19 4 -37 8
-40 9 -3 1 -41 9 -85 19 -44 10 -87 20 -95 23 -8 3 -31 7 -50 9 -65 6 -109 12
-130 19 -12 4 -38 8 -58 10 -20 2 -55 6 -77 9 -89 13 -109 15 -203 22 -87 6
-429 13 -435 9z m184 -345 c9 -8 24 -31 35 -50 10 -19 21 -37 24 -40 3 -3 16
-25 29 -50 13 -25 29 -52 35 -60 25 -34 48 -82 41 -88 -4 -4 -46 -7 -93 -8
-48 0 -96 -4 -107 -7 -18 -6 -105 -143 -105 -165 0 -5 85 -9 195 -9 241 0 236
2 306 -130 18 -34 31 -65 28 -67 -6 -6 -879 -9 -885 -4 -2 2 3 15 11 28 8 14
17 32 21 40 4 8 29 51 55 95 64 110 90 154 110 193 10 18 22 38 27 45 5 7 21
32 35 57 94 168 122 212 146 225 31 18 70 15 92 -5z m522 -892 c15 -18 27 -36
27 -40 0 -8 48 -87 60 -98 10 -10 9 -27 -3 -29 -7 -1 -254 -3 -550 -4 l-539
-2 -24 -30 c-13 -17 -24 -35 -24 -42 0 -6 -3 -13 -7 -15 -5 -1 -18 -22 -31
-45 -22 -40 -22 -43 -5 -43 10 -1 302 -1 648 -1 522 0 634 -3 655 -14 14 -8
21 -14 16 -15 -5 0 -4 -6 2 -12 16 -21 122 -210 122 -219 0 -5 4 -9 8 -9 5 0
16 -17 25 -37 16 -39 47 -94 58 -103 4 -3 9 -15 13 -27 4 -13 11 -23 16 -23 5
0 7 -9 5 -20 -2 -11 0 -20 5 -20 17 0 -11 -59 -35 -74 -21 -14 -80 -16 -443
-16 l-419 0 -9 -22 c-7 -18 -11 -326 -5 -419 1 -14 55 -15 499 -16 273 0 517
-3 542 -7 54 -8 111 -25 124 -37 6 -5 18 -9 27 -9 10 0 19 -3 21 -7 2 -5 29
-28 60 -51 31 -24 67 -57 80 -74 13 -16 28 -35 34 -41 16 -19 63 -119 69 -152
24 -115 -3 -282 -57 -350 -5 -5 -22 -27 -38 -49 -17 -21 -30 -36 -30 -33 0 3
-13 -7 -29 -21 -43 -40 -52 -46 -106 -69 -99 -42 -245 -47 -332 -11 -15 6 -31
11 -35 10 -5 -1 -8 3 -8 9 0 5 -4 7 -10 4 -5 -3 -10 -2 -10 2 0 5 -18 19 -40
33 -22 14 -40 27 -40 30 0 3 -12 19 -27 36 -16 16 -29 33 -30 37 -2 4 -9 20
-16 35 -28 54 -44 189 -27 222 2 3 4 10 4 16 6 53 109 180 167 206 16 7 29 15
29 18 0 21 197 19 235 -2 45 -25 97 -78 122 -123 96 -179 -57 -393 -230 -320
-44 18 -95 79 -103 123 -7 38 -3 42 58 63 37 12 41 11 54 -7 31 -45 48 -55 82
-45 1 1 5 1 8 0 13 -2 24 27 24 61 0 66 -54 120 -124 125 -115 8 -207 -101
-191 -226 16 -128 185 -224 330 -187 22 5 61 23 86 39 46 29 114 111 102 123
-3 3 -2 6 4 6 13 0 35 76 37 132 4 85 -67 226 -138 274 -20 14 -57 35 -83 47
-48 21 -53 22 -718 25 -368 2 -677 4 -685 4 -8 0 -229 -1 -490 -1 -457 -1
-580 -8 -580 -33 0 -4 -3 -7 -7 -6 -13 5 -86 -45 -119 -80 -18 -18 -45 -58
-60 -90 -24 -48 -29 -70 -29 -137 0 -69 4 -88 29 -135 61 -117 153 -175 277
-174 146 2 249 104 243 241 -3 77 -41 138 -104 164 -98 42 -191 -1 -207 -94
-4 -26 0 -40 20 -62 22 -26 27 -28 50 -18 14 7 28 21 32 32 8 25 21 26 86 5
43 -14 49 -19 43 -38 -3 -11 -7 -25 -8 -31 -3 -22 -50 -70 -91 -92 -31 -17
-135 -25 -135 -11 0 5 -9 8 -20 8 -11 0 -20 5 -20 10 0 6 -5 10 -10 10 -32 0
-83 103 -81 165 3 74 24 140 55 171 9 8 21 23 28 32 27 36 101 66 168 69 97 3
165 -25 243 -100 66 -64 91 -124 93 -222 1 -44 -3 -86 -8 -92 -6 -7 -7 -13 -4
-13 4 0 4 -6 -1 -13 -4 -6 -9 -21 -10 -32 -2 -10 -8 -22 -12 -25 -5 -3 -11
-12 -13 -20 -6 -27 -102 -115 -150 -138 -126 -59 -291 -57 -410 4 -15 8 -31
15 -35 17 -4 1 -17 11 -28 23 -12 12 -26 23 -31 25 -24 10 -136 179 -118 179
4 0 2 6 -3 13 -13 15 -14 28 -16 135 -1 91 2 119 21 165 7 16 12 31 12 35 0
22 96 141 148 183 59 49 156 92 234 105 24 4 268 7 543 8 l500 1 3 58 3 57 37
2 37 1 -37 4 -38 4 0 153 c0 105 -4 156 -12 164 -9 9 -119 12 -433 12 l-422 0
-23 25 c-13 14 -23 37 -23 52 0 40 34 110 58 120 11 5 404 9 873 9 469 -1 859
1 867 4 10 4 3 23 -32 80 -25 41 -47 77 -48 78 -8 9 -76 19 -80 12 -3 -4 -20
-4 -39 0 -19 4 -37 6 -40 3 -2 -3 -29 -4 -58 -3 -29 0 -59 1 -65 1 -14 -1
-103 0 -130 0 -10 0 -31 0 -48 -1 -16 0 -45 1 -63 3 -18 2 -35 0 -38 -4 -2 -4
-19 -4 -36 0 -18 4 -44 5 -58 1 -13 -3 -46 -3 -73 0 -26 4 -50 3 -52 0 -3 -4
-17 -5 -32 -3 -29 5 -43 5 -126 3 -26 -1 -51 1 -56 5 -5 3 -12 1 -16 -5 -4 -6
-13 -7 -23 -2 -16 8 -81 6 -90 -2 -2 -3 -14 -1 -26 3 -11 5 -30 5 -41 1 -11
-4 -30 -4 -42 1 -15 5 -23 5 -23 -2 0 -6 -6 -6 -19 0 -10 6 -21 8 -24 5 -4 -5
-182 -6 -229 -2 -10 1 -18 5 -18 10 0 5 -6 6 -12 2 -7 -4 -6 1 3 12 9 10 27
39 41 64 48 87 70 125 89 151 10 14 16 29 12 33 -3 3 -1 6 6 6 7 0 10 4 7 9
-3 5 1 11 9 15 8 3 15 15 15 26 0 11 3 20 8 20 4 0 18 21 32 48 13 26 28 49
32 52 4 3 12 17 18 30 6 14 16 34 23 45 7 11 17 28 23 38 6 11 25 22 43 25 17
4 267 6 554 5 l522 -3 28 -32z"/>
<path d="M2907 2853 c-4 -3 -7 -17 -7 -30 0 -21 -10 -28 -32 -24 -5 0 -8 -4
-8 -10 0 -6 6 -9 14 -6 7 3 19 0 25 -6 6 -6 11 -9 12 -6 1 7 4 89 3 89 0 0 -4
-3 -7 -7z"/>
<path d="M2974 2699 c0 -21 2 -36 5 -34 7 8 9 65 1 70 -3 2 -6 -14 -6 -36z"/>
<path d="M2903 2711 c0 -11 5 -18 9 -15 4 3 5 11 1 19 -7 21 -12 19 -10 -4z"/>
<path d="M2970 2610 c0 -5 5 -10 11 -10 5 0 7 5 4 10 -3 6 -8 10 -11 10 -2 0
-4 -4 -4 -10z"/>
<path d="M2343 2028 c-7 -13 30 -68 47 -69 113 -5 1013 -3 1016 3 3 5 9 6 14
3 11 -7 54 54 45 63 -9 9 -1116 9 -1122 0z"/>
<path d="M2576 1813 c-3 -4 -21 -7 -39 -7 l-32 -1 -3 -565 -2 -566 32 -18 c18
-11 50 -32 71 -48 20 -17 38 -28 38 -26 1 1 2 279 3 616 1 610 1 613 -19 610
-11 -1 -25 1 -31 5 -6 3 -14 3 -18 0z"/>
<path d="M2896 1812 c-2 -2 -17 -4 -32 -5 l-29 -2 0 -680 c-1 -724 -2 -706 48
-752 l24 -22 34 28 34 29 5 223 c3 123 4 438 2 700 l-2 477 -41 4 c-22 2 -42
2 -43 0z"/>
<path d="M3177 1808 c-9 -5 -12 -167 -12 -618 0 -335 2 -610 5 -610 6 0 53 31
60 40 3 3 22 16 43 29 l37 23 0 216 c1 687 -1 907 -10 916 -11 11 -107 14
-123 4z"/>
</g>
</svg>
